<svg width="130" height="80" viewBox="0 0 130 80" fill="none" xmlns="http://www.w3.org/2000/svg">
<g clip-path="url(#clip0_104_708)">
<rect width="130" height="80" fill="white"/>
<path d="M0 40V80H65H130V40V-7.62939e-06H65H0V40ZM104.302 21.4C109.341 23.5 111.155 27.7 110.651 36.8C110.349 43.6 110.047 44.4 107.124 47C101.078 52.4 85.6589 52 81.0233 46.3C77.093 41.6 76.9922 39.6 80.7209 34.5L83.9457 30H90.3954C93.9225 30 96.7442 30.2 96.7442 30.5C96.7442 30.8 94.6279 33.7 92.1085 36.9C89.5891 40.2 87.7752 43.3 88.1783 43.9C88.4806 44.5 91 45 93.7209 45C99.7674 45 100.775 43.6 100.775 35.1C100.775 26.1 100.674 26 92.1085 26C84.1473 26 82.031 24.7 84.6512 21.5C86.2636 19.5 99.5659 19.5 104.302 21.4ZM54.6202 34.2C56.7364 36.5 58.4496 39.1 58.4496 40C58.4496 41 56.8372 43.8 54.9225 46.4C51.2946 51 51.2946 51 45.3488 51C42.0233 51 39.3023 50.7 39.3023 50.2C39.3023 49.8 41.4186 46.9 43.8372 43.6C46.2558 40.4 48.0698 37.3 47.7674 36.9C47.4651 36.4 44.5426 36 41.3178 36H35.3721L35.0698 48.2L34.7674 60.5H30.2326H25.6977L25.3953 48.2L25.093 36H22.6744C20.9612 36 20.155 35.4 20.155 34.2C20.155 30.5 22.0698 30 36.6822 30H50.6899L54.6202 34.2ZM81.6279 30.5C81.6279 30.8 78.2016 35.6 74.0698 41L66.4109 51H60.4651C57.1395 51 54.4186 50.7 54.4186 50.4C54.4186 50 57.7442 45.3 61.7752 39.9L69.031 30.1L75.3798 30C78.8062 30 81.6279 30.2 81.6279 30.5Z" fill="#E42618"/>
</g>
<defs>
<clipPath id="clip0_104_708">
<rect width="130" height="80" fill="white"/>
</clipPath>
</defs>
</svg>
