<svg width="24" height="24" viewBox="0 0 24 24" fill="none" xmlns="http://www.w3.org/2000/svg">
<g clip-path="url(#clip0_33_262)">
<path d="M8 3C8 1.89543 8.89543 1 10 1H18C21.3137 1 24 3.68629 24 7V21C24 22.1046 23.1046 23 22 23H10C8.89543 23 8 22.1046 8 21V3Z" fill="white"/>
<g clip-path="url(#clip1_33_262)">
<rect x="8.38098" y="6.38095" width="15.2381" height="15.2381" rx="7.61905" fill="#E42618"/>
<path d="M10.0625 6.01021C9.83125 6.04459 9.57187 6.12896 9.29687 6.26021C9.04062 6.38521 8.9625 6.44458 8.70312 6.70396C8.36562 7.04146 8.19687 7.32271 8.07187 7.75709L8 8.00396V13.9883V19.9727L8.07187 20.2196C8.19687 20.654 8.36562 20.9352 8.70312 21.2727C8.9625 21.5321 9.04062 21.5915 9.29687 21.7165C9.88125 21.9977 9.22187 21.9727 15.9844 21.9727H21.9687L22.2156 21.9008C22.65 21.7758 22.9312 21.6071 23.2687 21.2696C23.5281 21.0102 23.5875 20.9321 23.7125 20.6758C23.9937 20.0915 23.9687 20.7508 23.9687 13.9883V8.00396L23.8969 7.75709C23.7719 7.32271 23.6031 7.04146 23.2656 6.70709C22.9375 6.37584 22.6625 6.21021 22.2344 6.07584L22 6.00396L16.0781 6.00084C12.8219 5.99771 10.1156 6.00396 10.0625 6.01021ZM15.7094 9.08834C15.8812 9.13834 16.1125 9.35396 16.2094 9.55709C16.5031 10.1665 16.4312 11.1071 15.9719 12.6102L15.8625 12.9665L16.0062 13.2196C16.3719 13.8665 16.9406 14.6008 17.3812 15.0008L17.5031 15.1102L17.7937 15.0665C18.8875 14.904 19.9187 14.9352 20.4625 15.1477C21.0344 15.3727 21.2437 15.8821 20.9187 16.254C20.6437 16.5665 19.925 16.604 19.15 16.3477C18.625 16.1727 18.0781 15.8696 17.6125 15.4946C17.4719 15.3821 17.3937 15.3383 17.3469 15.3477C17.3094 15.3571 17.05 15.4102 16.7656 15.4727C16.1812 15.5946 15.4906 15.779 14.9344 15.9602L14.5531 16.0821L14.3719 16.3883C13.5469 17.779 12.7125 18.6633 12.0375 18.8665C11.2812 19.0977 10.6875 18.5727 11.0031 17.9477C11.1219 17.7165 11.475 17.3821 11.9094 17.0946C12.2875 16.8446 13.1906 16.3696 13.5469 16.2352C13.6531 16.1946 13.7625 16.129 13.7875 16.0915C13.8687 15.9696 14.4687 14.6758 14.6969 14.129C14.8187 13.8352 15.0094 13.3508 15.1219 13.0446L15.325 12.4946L15.2 12.1852C15.0375 11.7883 14.8781 11.2446 14.8125 10.8383C14.7375 10.3977 14.7594 9.76646 14.8531 9.51646C15 9.14146 15.3312 8.97584 15.7094 9.08834Z" fill="white"/>
<path d="M15.2156 9.32897C14.8844 9.53209 14.8656 10.5102 15.1719 11.5102C15.2687 11.829 15.3937 12.1446 15.4219 12.1446C15.4469 12.1446 15.5906 11.6696 15.7 11.2227C15.8781 10.5071 15.925 9.85084 15.8187 9.57584C15.7094 9.29147 15.45 9.18522 15.2156 9.32897Z" fill="white"/>
<path d="M15.7844 13.2727C15.4907 14.1196 15.2282 14.754 14.9219 15.3633C14.8032 15.5946 14.7125 15.7883 14.7157 15.7946C14.7219 15.7977 14.9313 15.7415 15.1782 15.6633C15.775 15.479 16.2469 15.354 16.775 15.2415C17.0125 15.1915 17.2157 15.1415 17.225 15.1352C17.2344 15.1258 17.1563 15.029 17.0563 14.9196C16.7532 14.5946 16.3657 14.0946 16.0719 13.6477C15.9157 13.4102 15.7907 13.2477 15.7844 13.2727Z" fill="white"/>
<path d="M18.125 15.2102C17.9875 15.2258 17.8344 15.2508 17.7844 15.2633C17.6937 15.2883 17.6937 15.2915 17.9719 15.4915C18.4937 15.8727 18.9 16.0821 19.375 16.204C19.7 16.2915 19.8969 16.2883 20.0969 16.1946C20.3156 16.0915 20.4062 15.9602 20.4062 15.7383C20.4062 15.5165 20.3219 15.3946 20.0844 15.279L19.9062 15.1915L19.1406 15.1852C18.7187 15.1821 18.2625 15.1946 18.125 15.2102Z" fill="white"/>
<path d="M13.2969 16.5633C12.8875 16.7415 12.3031 17.0508 12.0156 17.2383C11.4875 17.5852 11.1094 18.0196 11.1094 18.279C11.1094 18.5321 11.3094 18.7008 11.5594 18.6633C11.9656 18.6008 12.6031 17.9696 13.2438 16.9977C13.5344 16.554 13.5906 16.4571 13.5563 16.4571C13.5438 16.4571 13.425 16.504 13.2969 16.5633Z" fill="white"/>
</g>
<path fill-rule="evenodd" clip-rule="evenodd" d="M7 2.09524V21.9048C7 23.0619 7.87211 24 8.94792 24H22.0521C23.1279 24 24 23.0619 24 21.9048V5.51345C24 4.95376 23.7918 4.41734 23.4219 4.02377L20.2089 0.60556C19.8442 0.217598 19.352 0 18.8391 0H8.94792C7.87211 0 7 0.93807 7 2.09524ZM8.23958 21.9048V2.09524C8.23958 1.67445 8.55671 1.33333 8.94792 1.33333H18.599V5.90476C18.599 6.69374 19.1936 7.33333 19.9271 7.33333H22.7604V21.9048C22.7604 22.3256 22.4433 22.6667 22.0521 22.6667H8.94792C8.55671 22.6667 8.23958 22.3256 8.23958 21.9048ZM22.7604 6V5.51345C22.7604 5.30993 22.6847 5.11487 22.5502 4.97175L19.8385 2.08691V5.90476C19.8385 5.95736 19.8782 6 19.9271 6H22.7604Z" fill="#9D9C9B"/>
<path d="M0 6.125C0 5.50368 0.50368 5 1.125 5H12.375C12.9963 5 13.5 5.50368 13.5 6.125V17.375C13.5 17.9963 12.9963 18.5 12.375 18.5H1.125C0.503679 18.5 0 17.9963 0 17.375V6.125Z" fill="#E42618"/>
<path d="M3.79883 12.4971H2.92578V11.7852H3.79883C3.92188 11.7852 4.02148 11.7578 4.09766 11.7031C4.17383 11.6484 4.22949 11.5732 4.26465 11.4775C4.2998 11.3799 4.31738 11.2705 4.31738 11.1494C4.31738 11.0264 4.2998 10.9111 4.26465 10.8037C4.22949 10.6963 4.17383 10.6104 4.09766 10.5459C4.02148 10.4795 3.92188 10.4463 3.79883 10.4463H3.2041V14H2.3457V9.73438H3.79883C4.08594 9.73438 4.33203 9.79492 4.53711 9.91602C4.74414 10.0371 4.90332 10.2041 5.01465 10.417C5.12598 10.6279 5.18164 10.8701 5.18164 11.1436C5.18164 11.4189 5.12598 11.6582 5.01465 11.8613C4.90332 12.0625 4.74414 12.2188 4.53711 12.3301C4.33203 12.4414 4.08594 12.4971 3.79883 12.4971ZM6.86914 14H6.11621L6.12207 13.291H6.86914C7.07617 13.291 7.2373 13.2539 7.35254 13.1797C7.46777 13.1055 7.54883 12.9883 7.5957 12.8281C7.64453 12.668 7.66895 12.458 7.66895 12.1982V11.5332C7.66895 11.3359 7.65625 11.1689 7.63086 11.0322C7.60547 10.8936 7.5625 10.7822 7.50195 10.6982C7.44141 10.6123 7.36035 10.5488 7.25879 10.5078C7.15723 10.4668 7.03125 10.4463 6.88086 10.4463H6.10156V9.73438H6.88086C7.12695 9.73438 7.35059 9.77441 7.55176 9.85449C7.75293 9.93457 7.92578 10.0518 8.07031 10.2061C8.21484 10.3584 8.32617 10.5469 8.4043 10.7715C8.48242 10.9961 8.52148 11.252 8.52148 11.5391V12.1982C8.52148 12.4873 8.48242 12.7432 8.4043 12.9658C8.32617 13.1885 8.21484 13.377 8.07031 13.5312C7.92773 13.6836 7.75488 13.7998 7.55176 13.8799C7.34863 13.96 7.12109 14 6.86914 14ZM6.61426 9.73438V14H5.75586V9.73438H6.61426ZM10.0068 9.73438V14H9.14844V9.73438H10.0068ZM11.3428 11.5479V12.2568H9.79004V11.5479H11.3428ZM11.5068 9.73438V10.4463H9.79004V9.73438H11.5068Z" fill="white"/>
</g>
<defs>
<clipPath id="clip0_33_262">
<rect width="24" height="24" fill="white"/>
</clipPath>
<clipPath id="clip1_33_262">
<rect width="16" height="16" fill="white" transform="translate(8 6)"/>
</clipPath>
</defs>
</svg>
